<svg xmlns="http://www.w3.org/2000/svg" viewBox="0 0 98.33 120"><defs><style>.cls-1{fill:#546ad3;}</style></defs><title>Asset 1lock</title><g id="Layer_2" data-name="Layer 2"><g id="lock"><path class="cls-1" d="M92.33,48H6a6,6,0,0,0-6,6v60a6,6,0,0,0,6,6H92.33a6,6,0,0,0,6-6V54A6,6,0,0,0,92.33,48Zm2,66a2,2,0,0,1-2,2H6a2,2,0,0,1-2-2V54a2,2,0,0,1,2-2H92.33a2,2,0,0,1,2,2Z"/><path class="cls-1" d="M49.16,0A32.16,32.16,0,0,0,17,32.17V52h4V32.17a28.17,28.17,0,1,1,56.33,0V52h4V32.17A32.17,32.17,0,0,0,49.16,0Z"/><path class="cls-1" d="M49.67,90.71h-1a4.5,4.5,0,0,1-4.5-4.5V65.79a4.5,4.5,0,0,1,4.5-4.5h1a4.5,4.5,0,0,1,4.5,4.5V86.21A4.5,4.5,0,0,1,49.67,90.71Zm-1-27.43a2.5,2.5,0,0,0-2.5,2.5V86.21a2.5,2.5,0,0,0,2.5,2.5h1a2.5,2.5,0,0,0,2.5-2.5V65.79a2.5,2.5,0,0,0-2.5-2.5Z"/><path class="cls-1" d="M90.4,72a1,1,0,0,1-1-1V56a1,1,0,0,1,2,0V71A1,1,0,0,1,90.4,72Z"/><path class="cls-1" d="M18.4,113H7.4a1,1,0,0,1-1-1v-8a1,1,0,0,1,2,0v7h10a1,1,0,0,1,0,2Z"/><path class="cls-1" d="M28.4,113h-6a1,1,0,0,1,0-2h6a1,1,0,0,1,0,2Z"/></g></g></svg>